<svg id="Layer_1" data-name="Layer 1" xmlns="http://www.w3.org/2000/svg" viewBox="0 0 448 477.33"><path d="M63.73,480.06a32.09,32.09,0,0,1-32-32v-384a32,32,0,0,1,64,0v384A32.09,32.09,0,0,1,63.73,480.06Z" transform="translate(-31.73 -15.65)" style="fill:#528dd7"/><path d="M360.13,80.06c-62.8,0-86.8-32-149.2-32-50.8,0-74.8,20.8-115.2,28.8v64c40.4-8,64.4-28.8,115.2-28.8,62.8,0,86.4,32,149.2,32,20.4,0,35.6-2.8,55.6-9.2v192c-20,6.4-35.2,9.2-55.6,9.2-62.8,0-86.8-32-149.2-32-20.4,0-36.4,3.6-51.2,8v64a159.94,159.94,0,0,1,51.2-8c62.8,0,86.4,32,149.2,32,37.2,0,56.4-9.6,119.6-32v-320C416.53,70.46,397.33,80.06,360.13,80.06Z" transform="translate(-31.73 -15.65)" style="fill:#528dd7"/><polygon points="158.01 477.33 380.69 243.02 181.85 239.53 292.89 2.91 160.34 0 103.94 304.07 281.27 287.79 158.01 477.33" style="fill:#faff31"/></svg>